<?xml version="1.0" encoding="iso-8859-1"?>
<!-- Generator: Adobe Illustrator 19.0.0, SVG Export Plug-In . SVG Version: 6.00 Build 0)  -->
<svg version="1.1" id="Capa_1" xmlns="http://www.w3.org/2000/svg" xmlns:xlink="http://www.w3.org/1999/xlink" x="0px" y="0px"
	 viewBox="0 0 512.013 512.013" style="enable-background:new 0 0 512.013 512.013;" xml:space="preserve">
<g>
	<path style="fill:#B38A82;" d="M251.665,125.629c-0.021,0-0.041,0-0.062,0c-4.142-0.034-7.473-3.419-7.44-7.56
		c0.126-15.693-6.257-25.718-19.514-30.648c-3.882-1.444-5.859-5.762-4.415-9.644c1.445-3.882,5.763-5.858,9.644-4.415
		c19.06,7.088,29.46,23.009,29.285,44.828C259.13,122.31,255.778,125.629,251.665,125.629z"/>
	
		<ellipse transform="matrix(0.2298 -0.9732 0.9732 0.2298 -91.3417 194.3937)" style="fill:#B38A82;" cx="77.15" cy="154.908" rx="72.187" ry="77.397"/>
</g>
<path style="fill:#F5D7B7;" d="M10.812,116.007c-4.084,6.348-7.174,13.425-8.99,21.115c-9.163,38.802,17.135,78.222,58.739,88.047
	c19.564,4.62,39.027,1.869,55.113-6.373C103.125,131.506,46.328,115.314,10.812,116.007z"/>
<ellipse transform="matrix(0.2298 0.9732 -0.9732 0.2298 485.6892 -303.9198)" style="fill:#B38A82;" cx="434.865" cy="154.905" rx="72.187" ry="77.397"/>
<path style="fill:#F5D7B7;" d="M501.188,116.007c4.084,6.348,7.174,13.425,8.99,21.115c9.163,38.802-17.135,78.222-58.739,88.047
	c-19.564,4.62-39.027,1.869-55.113-6.373C408.875,131.506,465.672,115.314,501.188,116.007z"/>
<path style="fill:#B38A82;" d="M49.739,265.267c0,101.623,92.346,173.855,206.261,173.855s206.261-72.232,206.261-173.855
	S384.994,105.553,256,105.553S49.739,163.644,49.739,265.267z"/>
<path style="fill:#F5D7B7;" d="M328.912,299.977c0-40.268-32.644-97.126-72.912-97.126s-72.912,56.857-72.912,97.126
	s32.644,58.019,72.912,58.019S328.912,340.245,328.912,299.977z"/>
<g>
	<ellipse style="fill:#F27281;" cx="135.02" cy="268.275" rx="43.12" ry="34.34"/>
	<ellipse style="fill:#F27281;" cx="376.98" cy="268.275" rx="43.12" ry="34.34"/>
</g>
<g>
	<path style="fill:#464D59;" d="M160.147,241.522c-4.142,0-7.5-3.358-7.5-7.5v-15.226c0-4.142,3.358-7.5,7.5-7.5s7.5,3.358,7.5,7.5
		v15.226C167.647,238.164,164.289,241.522,160.147,241.522z"/>
	<path style="fill:#464D59;" d="M351.853,241.522c-4.142,0-7.5-3.358-7.5-7.5v-15.226c0-4.142,3.358-7.5,7.5-7.5s7.5,3.358,7.5,7.5
		v15.226C359.353,238.164,355.995,241.522,351.853,241.522z"/>
	<path style="fill:#464D59;" d="M256,321.728c-4.142,0-7.5-3.358-7.5-7.5v-33.809c0-4.142,3.358-7.5,7.5-7.5s7.5,3.358,7.5,7.5
		v33.809C263.5,318.371,260.142,321.728,256,321.728z"/>
	<path style="fill:#464D59;" d="M256,321.728c-10.694,0-20.864-4.632-27.903-12.709c-2.721-3.123-2.396-7.86,0.727-10.581
		c3.122-2.721,7.859-2.396,10.582,0.727c4.188,4.806,10.237,7.563,16.594,7.563s12.406-2.757,16.594-7.563
		c2.722-3.124,7.46-3.448,10.582-0.727c3.123,2.722,3.448,7.459,0.727,10.581C276.864,317.097,266.694,321.728,256,321.728z"/>
	<path style="fill:#464D59;" d="M256,280.42c13.715,0,29.342-8.719,31.113-23.037c1.72-13.906-13.93-21.395-31.113-21.395
		s-32.833,7.489-31.113,21.395C226.658,271.701,242.285,280.42,256,280.42z"/>
</g>
<path style="opacity:0.1;enable-background:new    ;" d="M256,439.121c38.897,0,75.275-8.427,106.324-23.565
	C62.75,388.041,127.678,166.099,195.241,110.453C103.134,126.406,49.74,180.794,49.74,265.267
	C49.739,366.89,142.085,439.121,256,439.121z"/>
<g>
</g>
<g>
</g>
<g>
</g>
<g>
</g>
<g>
</g>
<g>
</g>
<g>
</g>
<g>
</g>
<g>
</g>
<g>
</g>
<g>
</g>
<g>
</g>
<g>
</g>
<g>
</g>
<g>
</g>
</svg>
