<?xml version="1.0" encoding="iso-8859-1"?>
<!-- Generator: Adobe Illustrator 19.0.0, SVG Export Plug-In . SVG Version: 6.00 Build 0)  -->
<svg version="1.1" id="Capa_1" xmlns="http://www.w3.org/2000/svg" xmlns:xlink="http://www.w3.org/1999/xlink" x="0px" y="0px"
	 viewBox="0 0 512.001 512.001" style="enable-background:new 0 0 512.001 512.001;" xml:space="preserve">
<path style="fill:#B38A82;" d="M326.274,466.049l-31.092,31.092c-9.812,9.812-25.722,9.812-35.534,0l0,0
	c-9.812-9.812-9.812-25.722,0-35.534l31.092-31.092c9.812-9.812,25.722-9.812,35.534,0l0,0
	C336.087,440.327,336.087,456.237,326.274,466.049z"/>
<path style="opacity:0.1;enable-background:new    ;" d="M326.274,466.049l-31.092,31.092c-9.812,9.812-25.722,9.812-35.534,0l0,0
	c-9.812-9.812-9.812-25.722,0-35.534l31.092-31.092c9.812-9.812,25.722-9.812,35.534,0l0,0
	C336.087,440.327,336.087,456.237,326.274,466.049z"/>
<path style="fill:#B38A82;" d="M267.089,466.049l-31.092,31.092c-9.812,9.812-25.722,9.812-35.534,0l0,0
	c-9.812-9.812-9.812-25.722,0-35.534l31.092-31.092c9.812-9.812,25.722-9.812,35.534,0l0,0
	C276.901,440.327,276.901,456.237,267.089,466.049z"/>
<path style="fill:#D9809C;" d="M436.77,301.641c36.367,0,65.848,29.481,65.848,65.848s-29.481,65.848-65.848,65.848h-81.606
	c-22.718,0-41.133-18.416-41.133-41.133l0,0c0-19.884,14.109-36.473,32.863-40.301c-3.774-5.217-6.004-11.625-6.004-18.556
	c0-17.51,14.194-31.705,31.705-31.705L436.77,301.641v0.16"/>
<path style="opacity:0.1;enable-background:new    ;" d="M436.77,433.337c6.511,0,12.794-0.96,18.734-2.72
	c-76.21-9.884-86.444-109.383-70.41-128.976h-12.501c-17.51,0-31.705,14.194-31.705,31.705c0,6.931,2.231,13.338,6.005,18.556
	c-18.753,3.828-32.863,20.416-32.863,40.301l0,0c0,22.718,18.416,41.133,41.133,41.133h81.606V433.337z"/>
<g>
	<path style="fill:#E4A2B7;" d="M227.61,100.712c-30.599-4.491-58.201-16.474-82.049-35.624
		c-23.361-18.757-35.407-38.402-38.542-43.976C99.784,8.251,83.491,3.69,70.628,10.925C57.766,18.162,53.204,34.454,60.44,47.316
		c4.354,7.739,18.961,31.453,46.06,54.784c3.016,2.597,1.088,7.548-2.89,7.411c-19.48-0.67-38.876-4.459-55.073-12.779
		c-13.07-6.713-29.417-1.651-36.158,11.405c-6.771,13.114-1.628,29.235,11.487,36.005c29.104,15.022,60.71,18.993,85.992,18.993
		c5.855,0,11.373-0.213,16.44-0.551c23.907-1.596,48.284-6.729,68.244-14.156c8.242,2.166,16.892,3.953,25.983,5.26
		c1.29,0.185,2.571,0.276,3.837,0.276c13.017,0,24.404-9.521,26.392-22.751C252.942,116.652,242.178,102.851,227.61,100.712z"/>
	<ellipse style="fill:#E4A2B7;" cx="264.127" cy="270.586" rx="215.105" ry="195.045"/>
</g>
<g>
	<path style="fill:#DD8EAB;" d="M314.647,358.226c-4.142,0-7.5-3.358-7.5-7.5v-18.264c0-4.142,3.358-7.5,7.5-7.5s7.5,3.358,7.5,7.5
		v18.264C322.147,354.867,318.789,358.226,314.647,358.226z"/>
	<path style="fill:#DD8EAB;" d="M366.483,358.226c-4.142,0-7.5-3.358-7.5-7.5v-18.264c0-4.142,3.358-7.5,7.5-7.5s7.5,3.358,7.5,7.5
		v18.264C373.983,354.867,370.625,358.226,366.483,358.226z"/>
	<path style="fill:#DD8EAB;" d="M262.811,358.226c-4.142,0-7.5-3.358-7.5-7.5v-18.264c0-4.142,3.358-7.5,7.5-7.5
		c4.142,0,7.5,3.358,7.5,7.5v18.264C270.311,354.867,266.954,358.226,262.811,358.226z"/>
	<path style="fill:#DD8EAB;" d="M288.729,401.867c-4.142,0-7.5-3.358-7.5-7.5v-18.264c0-4.142,3.358-7.5,7.5-7.5s7.5,3.358,7.5,7.5
		v18.264C296.23,398.508,292.871,401.867,288.729,401.867z"/>
	<path style="fill:#DD8EAB;" d="M340.566,401.867c-4.142,0-7.5-3.358-7.5-7.5v-18.264c0-4.142,3.358-7.5,7.5-7.5s7.5,3.358,7.5,7.5
		v18.264C348.066,398.508,344.708,401.867,340.566,401.867z"/>
</g>
<path style="fill:#F7D88B;" d="M314.647,213.596c22.073,0,44.598,9.648,39.965,36.522c-3.149,18.265-19.501,30.786-30.289,37.201
	c-5.968,3.549-13.383,3.549-19.351,0c-10.788-6.415-27.141-18.935-30.289-37.201C270.05,223.243,292.575,213.596,314.647,213.596z"
	/>
<path style="fill:#F4CF7A;" d="M295.654,216.336c-14.026,4.488-24.233,14.861-20.97,33.782
	c3.149,18.265,19.501,30.786,30.289,37.201c5.924,3.523,13.271,3.545,19.216,0.074C302.179,274.109,286.524,232.492,295.654,216.336
	z"/>
<g>
	<ellipse style="fill:#F27281;" cx="217.126" cy="241.276" rx="35.983" ry="28.655"/>
	<ellipse style="fill:#F27281;" cx="412.17" cy="241.276" rx="35.983" ry="28.655"/>
</g>
<path style="fill:#DD8EAB;" d="M225.351,79.961C125.06,96.517,49.02,176.122,49.02,271.836c0,107.72,96.308,195.044,215.11,195.044
	c47.286,0,90.999-13.845,126.504-37.294C123.133,466.88,121.52,169.166,225.351,79.961z"/>
<path style="fill:#D9809C;" d="M132.135,301.641c36.367,0,65.848,29.481,65.848,65.848s-29.481,65.848-65.848,65.848H50.529
	c-22.718,0-41.133-18.416-41.133-41.133l0,0c0-19.884,14.109-36.473,32.863-40.301c-3.774-5.217-6.004-11.625-6.004-18.556
	c0-17.51,14.194-31.705,31.705-31.705L132.135,301.641v0.16"/>
<path style="fill:#D17597;" d="M132.135,433.337c6.511,0,12.794-0.96,18.734-2.72c-76.21-9.884-86.444-109.383-70.41-128.976H67.958
	c-17.51,0-31.705,14.194-31.705,31.705c0,6.931,2.231,13.338,6.005,18.556c-18.753,3.828-32.863,20.416-32.863,40.301l0,0
	c0,22.718,18.416,41.133,41.133,41.133h81.606V433.337z"/>
<path d="M314.647,206.096c-24.013,0-35.623,9.526-40.406,15.205c-4.596,5.456-9.533,15.105-6.95,30.092
	c1.95,11.307,9.404,27.838,33.847,42.373c4.167,2.478,8.837,3.717,13.509,3.717c4.671,0,9.343-1.239,13.509-3.717
	c24.443-14.536,31.898-31.066,33.847-42.373c2.583-14.985-2.354-24.635-6.949-30.091
	C350.271,215.622,338.661,206.096,314.647,206.096z M347.221,248.844c-2.696,15.638-17.905,26.78-26.731,32.028
	c-3.603,2.143-8.08,2.144-11.684,0c-8.826-5.249-24.036-16.389-26.732-32.028c-1.306-7.573-0.115-13.421,3.64-17.879
	c5.283-6.271,15.829-9.868,28.934-9.868c13.105,0,23.651,3.597,28.935,9.868C347.336,235.423,348.527,241.271,347.221,248.844z
	 M381.57,210.095c0-5.308,4.319-9.627,9.627-9.627s9.626,4.319,9.626,9.627c0,4.142,3.358,7.5,7.5,7.5c4.142,0,7.5-3.358,7.5-7.5
	c0-13.579-11.047-24.628-24.627-24.628c-13.58,0-24.628,11.048-24.628,24.628c0,4.142,3.358,7.5,7.5,7.5
	S381.57,214.237,381.57,210.095z M213.472,210.095c0,4.142,3.358,7.5,7.5,7.5c4.142,0,7.5-3.358,7.5-7.5
	c0-5.308,4.319-9.627,9.627-9.627s9.626,4.319,9.626,9.627c0,4.142,3.358,7.5,7.5,7.5c4.142,0,7.5-3.358,7.5-7.5
	c0-13.579-11.047-24.628-24.627-24.628S213.472,196.516,213.472,210.095z M482.69,310.319c2.678-12.63,4.049-25.519,4.049-38.483
	c0-54.241-23.25-105.194-65.467-143.473c-42.011-38.092-97.819-59.07-157.144-59.07c-26.189,0-52.202,4.246-76.632,12.369
	c-13.279-5.718-25.803-13.237-37.24-22.422c-22.316-17.918-33.733-36.527-36.701-41.805C104.305,0.99,83.398-4.861,66.95,4.388
	c-16.445,9.252-22.299,30.16-13.047,46.606c4.696,8.347,17.533,28.901,40.617,50.438c-16.296-1.488-30.867-5.367-42.557-11.371
	c-16.864-8.66-37.61-2.096-46.248,14.635c-4.194,8.123-4.974,17.393-2.195,26.103s8.783,15.814,16.906,20.007
	c15.712,8.11,33.365,13.779,52.608,16.923c-20.44,30.989-31.516,66.747-31.516,104.105c0,10.193,0.85,20.422,2.517,30.481
	c-9.286,7.176-15.283,18.412-15.283,31.03c0,4.898,0.896,9.672,2.629,14.143c-17.539,7.535-29.488,25.038-29.488,44.714
	c0,26.817,21.817,48.634,48.634,48.634h81.606c2.861,0,5.678-0.182,8.454-0.502c15.521,9.44,32.122,16.996,49.471,22.566
	c-2.903,4.944-4.455,10.588-4.455,16.473c0,8.714,3.394,16.908,9.556,23.071c6.36,6.36,14.715,9.541,23.071,9.541
	s16.709-3.18,23.07-9.541l7.467-7.467c1.481,2.72,3.349,5.239,5.578,7.467c6.162,6.162,14.355,9.556,23.071,9.556
	c8.714,0,16.907-3.394,23.07-9.556l31.093-31.093c2.451-2.451,4.455-5.224,6.001-8.267c2.485-0.79,4.962-1.609,7.421-2.482
	c3.903-1.385,5.945-5.673,4.56-9.577c-1.386-3.903-5.673-5.944-9.577-4.56c-23.477,8.331-48.252,12.656-73.671,12.891
	c-0.026,0-0.053,0.001-0.079,0.001c-0.702,0.006-1.402,0.022-2.105,0.022c-20.086,0-39.809-2.582-58.702-7.604
	c-0.173-0.055-0.348-0.101-0.525-0.143c-15.152-4.068-29.766-9.711-43.6-16.86c25.971-11.302,44.181-37.201,44.181-67.284
	c0-40.444-32.904-73.349-73.349-73.349H67.958c-3.384,0-6.668,0.431-9.803,1.241c-1.081-7.797-1.636-15.682-1.636-23.546
	c0-37.928,12.443-74.111,35.223-104.636c0.428-0.435,0.802-0.923,1.115-1.454c11.644-15.288,25.888-29.134,42.497-41.016
	c3.369-2.41,4.146-7.095,1.736-10.463c-2.41-3.369-7.095-4.146-10.463-1.736c-16.894,12.087-31.539,26.064-43.689,41.476
	c-20.631-2.562-39.328-8.115-55.631-16.529c-4.563-2.355-7.935-6.346-9.496-11.238c-1.561-4.892-1.123-10.098,1.232-14.661
	c4.852-9.397,16.545-13.065,26.066-8.174c16.062,8.25,35.658,12.826,58.242,13.603c5.047,0.163,9.475-2.748,11.31-7.442
	c1.835-4.697,0.553-9.858-3.269-13.148C84.895,73.602,70.697,50.252,66.976,43.639c-5.196-9.237-1.909-20.98,7.328-26.177
	c9.238-5.196,20.98-1.909,26.178,7.328c3.301,5.869,15.969,26.544,40.383,46.147c8.597,6.903,17.762,12.944,27.37,18.087
	c-3.187,1.383-6.349,2.815-9.46,4.338c-3.72,1.821-5.26,6.313-3.438,10.034c1.822,3.721,6.315,5.26,10.034,3.438
	c30.122-14.746,64.271-22.543,98.758-22.543c114.477,0,207.609,84.132,207.609,187.543c0,32.522-9.36,64.561-27.071,92.651
	c-17.242,27.352-42.04,50.548-71.71,67.084c-3.618,2.017-4.917,6.584-2.9,10.202c1.372,2.462,3.926,3.851,6.558,3.851
	c1.235,0,2.488-0.306,3.644-0.95c2.228-1.241,4.423-2.527,6.599-3.837h49.91c40.444,0,73.349-32.904,73.349-73.349
	C510.118,345.206,499.949,324.198,482.69,310.319z M269.421,474.324c14.443-0.305,28.685-1.869,42.624-4.652l-22.166,22.166
	c-3.329,3.329-7.755,5.162-12.463,5.162c-4.708,0-9.134-1.833-12.463-5.163c-2.321-2.32-3.925-5.219-4.675-8.369L269.421,474.324z
	 M205.443,467.267c14.049,3.483,28.504,5.705,43.198,6.623l-17.947,17.948c-3.329,3.329-7.755,5.162-12.463,5.162
	c-4.708,0-9.134-1.833-12.463-5.163c-3.329-3.33-5.163-7.755-5.163-12.463C200.604,474.827,202.328,470.553,205.443,467.267z
	 M67.958,309.141h62.627c0.97,0.204,2.035,0.21,3.009,0.018c31.501,0.779,56.887,26.646,56.887,58.33
	c0,32.173-26.175,58.348-58.348,58.348H50.529c-18.545,0-33.634-15.087-33.634-33.634c0-15.688,10.978-29.369,26.198-32.801h37.04
	c4.142,0,7.5-3.358,7.5-7.5s-3.358-7.5-7.5-7.5H46.432c-1.756-3.402-2.677-7.164-2.677-11.056
	C43.754,320,54.612,309.141,67.958,309.141z M436.77,425.837h-28.049c19.386-15.089,35.909-33.16,48.636-53.349
	c9.098-14.432,16.163-29.833,21.084-45.8c10.58,10.814,16.675,25.426,16.675,40.801C495.117,399.663,468.943,425.837,436.77,425.837
	z"/>
<g>
</g>
<g>
</g>
<g>
</g>
<g>
</g>
<g>
</g>
<g>
</g>
<g>
</g>
<g>
</g>
<g>
</g>
<g>
</g>
<g>
</g>
<g>
</g>
<g>
</g>
<g>
</g>
<g>
</g>
</svg>
