<svg height="512pt" viewBox="-124 0 512 512.00064" width="512pt" xmlns="http://www.w3.org/2000/svg"><path d="m132.796875 90.152344s-2.65625-29.21875-17.738281-52.195313c-8.699219-13.25-27.214844-15.550781-39.015625-4.96875 0 0-17.210938 16.589844-1.121094 37.636719 12.207031 15.964844 30.035156 38.699219 31.953125 76.261719.699219-1.402344 25.921875-12.609375 25.921875-12.609375zm0 0" fill="#7fb762"/><path d="m132.796875 90.152344s-1.824219-20-10.992187-39.917969c-4.40625 4.570313-13.605469 15.566406-17.65625 31.179687-2.046876 7.894532-6.324219 13.054688-10.859376 16.425782 6.902344 12.886718 12.554688 28.8125 13.585938 49.046875.699219-1.402344 25.921875-12.609375 25.921875-12.609375zm0 0" fill="#6c9e4f"/><path d="m132.863281 162.824219s-32.984375-91.839844 30.070313-153.5c11.816406-11.558594 30.878906-12.71875 43.042968-1.527344 16.101563 14.816406 15.691407 35.800781 1.277344 48.640625-21.230468 18.90625-44.132812 52.339844-37.878906 106.386719 0-.792969-36.511719 0-36.511719 0zm0 0" fill="#8dc971"/><path d="m263.308594 250.113281c0 72.710938-58.941406 261.886719-131.652344 261.886719s-131.65625-189.175781-131.65625-261.886719c0-72.710937 58.945312-131.65625 131.65625-131.65625s131.652344 58.945313 131.652344 131.65625zm0 0" fill="#ffb864"/><path d="m124.238281 367.023438c-6.003906-7.511719-11.222656-15.3125-15.746093-23.269532-33.828126-59.519531-13.375-134.574218 44.535156-171.089844 19.222656-12.121093 30.632812-28.253906 37.074218-40.554687-17.613281-8.738281-37.457031-13.652344-58.445312-13.652344-72.710938 0-131.65625 58.945313-131.65625 131.65625 0 72.710938 58.945312 261.886719 131.65625 261.886719 14.578125 0 28.605469-7.605469 41.714844-20.355469-3.6875-33.710937-15.238282-82.25-49.132813-124.621093zm0 0" fill="#ffa84a"/><g fill="#57565c"><path d="m218.574219 247.910156c-4.265625 0-7.726563-3.457031-7.726563-7.726562v-12.824219c0-4.269531 3.460938-7.726563 7.726563-7.726563 4.269531 0 7.726562 3.457032 7.726562 7.726563v12.824219c0 4.269531-3.457031 7.726562-7.726562 7.726562zm0 0"/><path d="m52.394531 247.910156c-4.269531 0-7.726562-3.457031-7.726562-7.726562v-12.824219c0-4.269531 3.457031-7.726563 7.726562-7.726563 4.265625 0 7.726563 3.457032 7.726563 7.726563v12.824219c0 4.269531-3.460938 7.726562-7.726563 7.726562zm0 0"/><path d="m135.484375 256c-10 0-20-3.234375-28.34375-9.707031-3.371094-2.617188-3.984375-7.46875-1.371094-10.839844 2.613281-3.375 7.46875-3.988281 10.839844-1.371094 11.113281 8.617188 26.636719 8.617188 37.75 0 3.367187-2.617187 8.222656-2.003906 10.835937 1.371094 2.617188 3.371094 2.003907 8.222656-1.367187 10.839844-8.34375 6.472656-18.34375 9.707031-28.34375 9.707031zm0 0"/></g><path d="m194.214844 353.847656h-39.417969c-10.664063 0-19.3125-8.644531-19.3125-19.308594 0-10.664062 8.648437-19.308593 19.3125-19.308593h39.417969c10.664062 0 19.308594 8.644531 19.308594 19.308593 0 10.664063-8.644532 19.308594-19.308594 19.308594zm0 0" fill="#ff9c31"/><path d="m64.871094 315.230469h-56.023438c2.796875 12.433593 6.210938 25.453125 10.179688 38.617187h45.84375c10.664062 0 19.308594-8.644531 19.308594-19.308594 0-10.664062-8.644532-19.308593-19.308594-19.308593zm0 0" fill="#ff8308"/><path d="m126.535156 402.320312c-10.664062 0-19.308594 8.644532-19.308594 19.308594 0 10.664063 8.644532 19.3125 19.308594 19.3125h82.773438c6.449218-12.105468 12.449218-25.148437 17.929687-38.621094zm0 0" fill="#ff9c31"/><path d="m147.113281 402.320312h-20.578125c-10.664062 0-19.308594 8.644532-19.308594 19.308594 0 10.664063 8.644532 19.3125 19.308594 19.3125h36.359375c-3.90625-12.5625-9.042969-25.613281-15.78125-38.621094zm0 0" fill="#ff8308"/></svg>