<svg id="Capa_1" enable-background="new 0 0 512 512" height="512" viewBox="0 0 512 512" width="512" xmlns="http://www.w3.org/2000/svg" xmlns:xlink="http://www.w3.org/1999/xlink"><radialGradient id="SVGID_1_" cx="416.567" cy="84.96" gradientTransform="matrix(1 0 0 1.015 0 -1.268)" gradientUnits="userSpaceOnUse" r="75.52"><stop offset="0" stop-color="#ac80dd"/><stop offset="1" stop-color="#cbafea"/></radialGradient><linearGradient id="lg1"><stop offset=".0132" stop-color="#f1eaf9"/><stop offset=".6064" stop-color="#ddc8f1"/><stop offset=".7629" stop-color="#dac4f0"/><stop offset=".9252" stop-color="#d1b7ec"/><stop offset="1" stop-color="#cbafea"/></linearGradient><radialGradient id="SVGID_2_" cx="72.638" cy="67.54" gradientTransform="matrix(.707 -.707 .553 .553 -16.094 81.534)" gradientUnits="userSpaceOnUse" r="226.024" xlink:href="#lg1"/><radialGradient id="SVGID_3_" cx="-18.307" cy="259.952" gradientTransform="matrix(1 0 0 .66 0 88.313)" gradientUnits="userSpaceOnUse" r="405.566"><stop offset="0" stop-color="#bc95e2"/><stop offset=".1204" stop-color="#b68fdc"/><stop offset=".2817" stop-color="#a57ecc"/><stop offset=".4655" stop-color="#8963b2"/><stop offset=".5854" stop-color="#734d9d"/><stop offset=".9943" stop-color="#5e54ac"/></radialGradient><radialGradient id="SVGID_4_" cx="42.817" cy="23.257" gradientTransform="matrix(1 0 0 1.015 0 -.347)" gradientUnits="userSpaceOnUse" r="89.474" xlink:href="#lg1"/><radialGradient id="SVGID_5_" cx="334.494" cy="268.323" gradientUnits="userSpaceOnUse" r="377.045"><stop offset="0" stop-color="#bc95e2"/><stop offset=".377" stop-color="#ac80dd"/><stop offset=".5004" stop-color="#a478d3"/><stop offset=".7078" stop-color="#8d62b9"/><stop offset=".8996" stop-color="#734a9b"/></radialGradient><radialGradient id="SVGID_6_" cx="433.125" cy="3436.538" gradientTransform="matrix(.931 0 0 .112 -147.994 81.371)" gradientUnits="userSpaceOnUse" r="234.348"><stop offset="0" stop-color="#bc95e2"/><stop offset=".2995" stop-color="#d6beee"/><stop offset=".4962" stop-color="#e4d5f4"/><stop offset=".888" stop-color="#fff"/></radialGradient><linearGradient id="lg2"><stop offset="0" stop-color="#8078bc"/><stop offset=".5427" stop-color="#6b61b1"/><stop offset=".7802" stop-color="#59509a"/><stop offset="1" stop-color="#453d81"/></linearGradient><radialGradient id="SVGID_7_" cx="-3981.144" cy="-3910.629" gradientTransform="matrix(-1 0 0 .607 -3669.98 2764.749)" gradientUnits="userSpaceOnUse" r="125.574" xlink:href="#lg2"/><linearGradient id="lg3"><stop offset="0" stop-color="#8078bc"/><stop offset=".4963" stop-color="#6b61b1"/><stop offset=".7815" stop-color="#574e97"/><stop offset="1" stop-color="#453d81"/></linearGradient><radialGradient id="SVGID_8_" cx="-4522.033" cy="-393.021" gradientTransform="matrix(.5 -.866 -1.593 -.92 1876.05 -4071.8)" gradientUnits="userSpaceOnUse" r="35.057" xlink:href="#lg3"/><radialGradient id="SVGID_9_" cx="-4507.362" cy="-375.906" gradientTransform="matrix(-.5 -.866 1.593 -.92 -1289.623 -4053.099)" gradientUnits="userSpaceOnUse" r="35.057" xlink:href="#lg3"/><radialGradient id="SVGID_10_" cx="381.441" cy="245.805" gradientTransform="matrix(1 0 0 1.53 -139.999 -130.159)" gradientUnits="userSpaceOnUse" r="43.931" xlink:href="#lg2"/><radialGradient id="SVGID_11_" cx="521.44" cy="245.805" gradientTransform="matrix(1 0 0 1.53 -139.999 -130.159)" gradientUnits="userSpaceOnUse" r="43.931" xlink:href="#lg2"/><g><path d="m401.083 19.093.001.006c-1.04-.074-2.116.535-2.435 1.724-6.211 23.181-17.675 44.572-33.447 62.54l30.888 36.393-3.325 28.812 74.541-33.156 7.968-96.319z" fill="url(#SVGID_1_)"/><path d="m293.01 27.07h-74.02c-120.945 0-218.99 98.045-218.99 218.99l89.659 24.005z" fill="url(#SVGID_2_)"/><path d="m74.02 246.06h-74.02c0 120.945 98.045 218.99 218.99 218.99h74.02z" fill="url(#SVGID_3_)"/><path d="m110.871 19.093h-74.191c-.77.004-1.543.379-1.998 1.167l-11.694 20.256c-16.404 28.412-11.679 64.3 11.52 87.499h74.02l5.979-43.521z" fill="url(#SVGID_4_)"/><path d="m477.492 128.015c23.199-23.199 27.924-59.087 11.52-87.499l-11.694-20.255c-1.04-1.801-3.737-1.446-4.276.563-6.211 23.181-17.675 44.572-33.448 62.54-38.813-34.993-90.211-56.294-146.584-56.294s-107.771 21.301-146.585 56.293c-15.773-17.968-27.236-39.358-33.448-62.54-.538-2.008-3.236-2.364-4.276-.563l-11.693 20.256c-16.404 28.412-11.679 64.3 11.52 87.499-21.818 34.026-34.48 74.485-34.508 117.899-.079 121.302 97.321 218.937 218.623 219.136 121.114.199 219.357-97.923 219.357-218.99 0-43.469-12.666-83.981-34.508-118.045z" fill="url(#SVGID_5_)"/><path d="m258.279 492.907c125.572 0 227.368-12.472 227.368-27.856h-454.736c0 15.384 101.796 27.856 227.368 27.856z" fill="url(#SVGID_6_)"/><path d="m293.01 331.726c42.257 0 81.479-14.841 113.912-40.204 3.252-2.543 7.475 1.683 4.946 4.947-29.085 37.536-71.555 61.196-118.858 61.196s-89.773-23.661-118.858-61.196c-2.529-3.263 1.694-7.49 4.946-4.947 32.433 25.364 71.654 40.204 113.912 40.204z" fill="url(#SVGID_7_)"/><path d="m254.991 199.215c.819.22 1.705.233 2.584-.002 2.668-.715 4.25-3.456 3.535-6.124-3.265-12.188-11.082-22.374-22.009-28.683-10.928-6.308-23.657-7.985-35.844-4.719-2.668.715-4.25 3.456-3.535 6.124s3.456 4.25 6.124 3.535c9.607-2.574 19.642-1.254 28.256 3.72 8.614 4.973 14.776 13.003 17.35 22.611.479 1.789 1.87 3.091 3.539 3.538z" fill="url(#SVGID_8_)"/><path d="m331.028 199.215c-.819.22-1.705.233-2.584-.002-2.668-.715-4.25-3.456-3.535-6.124 3.265-12.188 11.082-22.374 22.009-28.683 10.928-6.308 23.657-7.985 35.844-4.719 2.668.715 4.25 3.456 3.535 6.124s-3.456 4.25-6.124 3.535c-9.607-2.574-19.642-1.254-28.256 3.72-8.614 4.973-14.776 13.003-17.35 22.611-.478 1.789-1.869 3.091-3.539 3.538z" fill="url(#SVGID_9_)"/><path d="m223.01 258.008c-12.576 0-22.771-10.195-22.771-22.771v-24.696c0-12.576 10.195-22.771 22.771-22.771 12.576 0 22.771 10.195 22.771 22.771v24.696c0 12.577-10.195 22.771-22.771 22.771z" fill="url(#SVGID_10_)"/><path d="m363.009 258.008c-12.576 0-22.771-10.195-22.771-22.771v-24.696c0-12.576 10.195-22.771 22.771-22.771 12.576 0 22.771 10.195 22.771 22.771v24.696c0 12.577-10.195 22.771-22.771 22.771z" fill="url(#SVGID_11_)"/></g></svg>