<svg height="512" viewBox="0 0 48 60" width="512" xmlns="http://www.w3.org/2000/svg"><g id="Page-1" fill="none" fill-rule="evenodd"><g id="012---Dinosaur" fill-rule="nonzero" transform="translate(-1)"><path id="Shape" d="m42 46c-.0164355 2.2273993-.7336704 4.3930988-2.05 6.19-.4855513.6836146-1.0346624 1.3197799-1.64 1.9-.5655518-.693958-1.4147879-1.0946799-2.31-1.09h-1.08c.0518679-.3308364.078611-.6651253.08-1 0-4.42-4.48-8-10-8s-10 3.58-10 8c.001389.3348747.0281321.6691636.08 1h-1.08c-.8952121-.0046799-1.7444482.396042-2.31 1.09-.6053376-.5802201-1.1544487-1.2163854-1.64-1.9-1.3163296-1.7969012-2.0335645-3.9626007-2.05-6.19.09398293-3.4448281 1.73156936-6.6649252 4.46-8.77 3.9156046 1.8630697 8.2039464 2.810335 12.54 2.77 4.3360536.040335 8.6243954-.9069303 12.54-2.77 2.7284306 2.1050748 4.3660171 5.3251719 4.46 8.77z" fill="#60a917"/><path id="Shape" d="m37.54 37.23c-.652.321-1.338.608-2.039.878 2.1807035 2.0527132 3.4420561 4.897696 3.499 7.892-.0164355 2.2273993-.7336704 4.3930988-2.05 6.19-.2.288-.428.567-.66.843.7881274.0661843 1.5163173.4472223 2.02 1.057.6053376-.5802201 1.1544487-1.2163854 1.64-1.9 1.3163296-1.7969012 2.0335645-3.9626007 2.05-6.19-.0939829-3.4448281-1.7315694-6.6649252-4.46-8.77z" fill="#549414"/><path id="Shape" d="m47 24.47c0 4.35-2.53 8.27-6.6 11.09-.9102342.6273972-1.8662498 1.1856301-2.86 1.67-3.9156046 1.8630697-8.2039464 2.810335-12.54 2.77-4.3360536.040335-8.6243954-.9069303-12.54-2.77-.9937502-.4843699-1.9497658-1.0426028-2.86-1.67-4.07-2.82-6.6-6.74-6.6-11.09 0-8.58 9.85-17.47 22-17.47s22 8.89 22 17.47z" fill="#a4c400"/><path id="Shape" d="m25 7c-.5 0-1 .021-1.5.051 11.45.693 20.5 9.195 20.5 17.419 0 4.35-2.53 8.27-6.6 11.09-.9102342.6273972-1.8662498 1.1856301-2.86 1.67-3.4561198 1.6509825-7.2127058 2.5795806-11.04 2.729.5.024 1 .041 1.5.041 4.3360536.040335 8.6243954-.9069303 12.54-2.77.9937502-.4843699 1.9497658-1.0426028 2.86-1.67 4.07-2.82 6.6-6.74 6.6-11.09 0-8.58-9.85-17.47-22-17.47z" fill="#90ac00"/><path id="Shape" d="m8 46c.0164355 2.2273993.7336704 4.3930988 2.05 6.19h-.01c-3.14 1.74-9.62.58-7.69-6.19 1.31327143-4.1291734 3.83963718-7.7671401 7.25-10.44.9102342.6273972 1.8662498 1.1856301 2.86 1.67-2.72843064 2.1050748-4.36601707 5.3251719-4.46 8.77z" fill="#60a917"/><path id="Shape" d="m35 52c-.001389.3348747-.0281321.6691636-.08 1h-4.92c-1.6568542 0-3 1.3431458-3 3v2c.004171.3519655.1893436.6769622.49.86-1.6547522.1866685-3.3252478.1866685-4.98 0 .3006564-.1830378.485829-.5080345.49-.86v-2c0-1.6568542-1.3431458-3-3-3h-4.92c-.0518679-.3308364-.078611-.6651253-.08-1 0-4.42 4.48-8 10-8s10 3.58 10 8z" fill="#ef314c"/><path id="Shape" d="m24 56v2c.004171.3519655.1893436.6769622.49.86-.326.036-.658.061-.99.083.494.034.992.057 1.5.057.8319485-.0006475 1.6632223-.0473857 2.49-.14-.3006564-.1830378-.485829-.5080345-.49-.86v-2c0-1.6568542 1.3431458-3 3-3h-3c-1.6568542 0-3 1.3431458-3 3z" fill="#bb193b"/><path id="Shape" d="m25 44c-.5015694.0027704-1.0025016.0361659-1.5.1 4.807.58 8.5 3.889 8.5 7.9-.001389.3348747-.0281321.6691636-.08 1h3c.0518679-.3308364.078611-.6651253.08-1 0-4.42-4.48-8-10-8z" fill="#bb193b"/><path id="Shape" d="m39.96 52.19h-.01c1.3163296-1.7969012 2.0335645-3.9626007 2.05-6.19-.0939829-3.4448281-1.7315694-6.6649252-4.46-8.77.9937502-.4843699 1.9497658-1.0426028 2.86-1.67 3.4103628 2.6728599 5.9367286 6.3108266 7.25 10.44 1.93 6.77-4.55 7.93-7.69 6.19z" fill="#549414"/><path id="Shape" d="m23 56v2c-.004171.3519655-.1893436.6769622-.49.86-.1538549.0927623-.3303484.1412115-.51.14h-10c-.5522847 0-1-.4477153-1-1v-2c.0033011-1.655485 1.344515-2.9966989 3-3h6c1.6568542 0 3 1.3431458 3 3z" fill="#a4c400"/><path id="Shape" d="m20 53h-3c1.6568542 0 3 1.3431458 3 3v2c-.004171.3519655-.1893436.6769622-.49.86-.1538549.0927623-.3303484.1412115-.51.14h3c.1796516.0012115.3561451-.0472377.51-.14.3006564-.1830378.485829-.5080345.49-.86v-2c0-1.6568542-1.3431458-3-3-3z" fill="#90ac00"/><path id="Shape" d="m39 56v2c0 .5522847-.4477153 1-1 1h-10c-.1763201-.0001606-.3492335-.0485763-.5-.14h-.01c-.3006564-.1830378-.485829-.5080345-.49-.86v-2c0-1.6568542 1.3431458-3 3-3h6c1.655485.0033011 2.9966989 1.344515 3 3z" fill="#a4c400"/><path id="Shape" d="m38.31 54.09c-.5655518-.693958-1.4147879-1.0946799-2.31-1.09l-3-.0000405c1.655485.0033416 2.9966989 1.3445555 3 3.0000405v2c0 .5522847-.4477153 1-1 1h3c.5522847 0 1-.4477153 1-1v-2c.0008934-.6978464-.2433152-1.3738441-.69-1.91z" fill="#90ac00"/><path id="Shape" d="m30 13c0 1.1-2.24 2-5 2s-5-.9-5-2l.13-.46 2.97-10c.1917327-.89614934.9835694-1.5364917 1.9-1.5364917s1.7082673.64034236 1.9 1.5364917l2.97 10z" fill="#ffeb3a"/><path id="Shape" d="m26.9 2.537c-.1504772-.73684832-.7193453-1.31680696-1.4531512-1.48148163-.7338059-.16467468-1.4959428.11659079-1.9468488.71848163.179859.22709146.3155371.48589747.4.763l3.1 10.463h3z" fill="#fdd834"/><g fill="#f5f5f5"><path id="Shape" d="m13.82 27c.1211006.3193958.1821256.6584234.18 1 0 1.6568542-1.3431458 3-3 3-1.65685425 0-3-1.3431458-3-3-.00212561-.3415766.05889936-.6806042.18-1z"/><path id="Shape" d="m22.82 27c.1211006.3193958.1821256.6584234.18 1 0 1.6568542-1.3431458 3-3 3s-3-1.3431458-3-3c-.0021256-.3415766.0588994-.6806042.18-1z"/><path id="Shape" d="m32.82 27c.1211006.3193958.1821256.6584234.18 1 0 1.6568542-1.3431458 3-3 3s-3-1.3431458-3-3c-.0021256-.3415766.0588994-.6806042.18-1z"/><path id="Shape" d="m41.82 27c.1211006.3193958.1821256.6584234.18 1 0 1.6568542-1.3431458 3-3 3s-3-1.3431458-3-3c-.0021256-.3415766.0588994-.6806042.18-1z"/></g><circle id="Oval" cx="18" cy="19" fill="#02a9f4" r="2"/><circle id="Oval" cx="31" cy="19" fill="#02a9f4" r="2"/><path id="Shape" d="m41.994 35.6c3.729-2.942 6.006-6.848 6.006-11.13 0-8.447-8.437-16.456-18.932-18.129l-1.212-4.088c-.3167749-1.32073202-1.4978102-2.25199416-2.856-2.25199416s-2.5392251.93126214-2.856 2.25199416l-1.212 4.088c-10.495 1.673-18.932 9.682-18.932 18.129 0 4.282 2.277 8.188 6.006 11.127-3.10367704 2.6963679-5.39525699 6.2036833-6.618 10.129-1.14 4 .485 6.024 1.555 6.874 1.16758691.8845687 2.59948546 1.3493016 4.064 1.319.93571709.0016555 1.86400963-.166047 2.74-.495.21733333.272.447.5386667.689.8-.2821533.549783-.4314822 1.1580587-.436 1.776v2c0 1.1045695.8954305 2 2 2h10c.2288463-.0020422.4555808-.044005.67-.124.781.078 1.563.124 2.33.124s1.551-.045 2.333-.123c.2135396.0792919.4392238.1209099.667.123h10c1.1045695 0 2-.8954305 2-2v-2c-.004049-.6189567-.153391-1.2283132-.436-1.779.242-.26.4716667-.5266667.689-.8.8759904.328953 1.8042829.4966555 2.74.495 1.4642414.0317124 2.8962807-.432009 4.064-1.316 1.07-.85 2.7-2.874 1.554-6.875-1.2231789-3.9237318-3.5143473-7.4295623-6.617-10.125zm-37.994-11.13c0-7.121 7.318-14.161 16.3-15.99l-1.256 4.236c-.1181346.3472054-.0367282.7312209.2121209 1.0006304.248849.2694095.6252086.3809817.9806814.2907239.3554727-.0902577.6330169-.367862.7231977-.7233543l3.1-10.463c.0633769-.46983182.4644129-.8204032.9385-.8204032s.8751231.35057138.9385.8204032l3.1 10.463c.0901808.3554923.367725.6330966.7231977.7233543.3554728.0902578.7318324-.0213144.9806814-.2907239.2488491-.2694095.3302555-.653425.2121209-1.0006304l-1.253-4.236c8.982 1.829 16.3 8.869 16.3 15.99 0 8.012-9.42 14.53-21 14.53s-21-6.518-21-14.53zm37 21.53c-.03698 2.4996589-1.0175127 4.8929445-2.745 6.7-.6632499-.4566899-1.4497265-.700829-2.255-.7 0-4.962-4.935-9-11-9s-11 4.038-11 9c-.8052735-.000829-1.5917501.2433101-2.255.7-1.7274873-1.8070555-2.70802004-4.2003411-2.745-6.7.08173756-2.9360024 1.4107506-5.6980508 3.654-7.594 3.882215 1.7384158 8.092432 2.6230184 12.346 2.594 4.253568.0290184 8.463785-.8555842 12.346-2.594 2.2432494 1.8959492 3.5722624 4.6579976 3.654 7.594zm-36.813 5.033c-1.5-1.194-1.306-3.247-.875-4.758 1.16794334-3.7090509 3.38067431-7.0026279 6.373-9.486.347.223.706.438 1.073.646-2.34951396 2.2362612-3.70334952 5.321839-3.758 8.565.01369528 2.003444.55114633 3.9684671 1.559 5.7-1.48294388.4539802-3.09188655.208517-4.372-.667zm7.813 4.967c0-1.1045695.8954305-2 2-2h6c1.1045695 0 2 .8954305 2 2v2h-10zm12 1.971v-1.971c0-2.209139-1.790861-4-4-4h-4c0-3.86 4.038-7 9-7s9 3.14 9 7h-4c-2.209139 0-4 1.790861-4 4v1.971c-.6666667.032-1.3333333.032-2 0zm14 .029h-10v-2c0-1.1045695.8954305-2 2-2h6c1.1045695 0 2 .8954305 2 2zm7.813-6.967c-1.2799518.8758573-2.888906 1.1216902-4.372.668 1.0080219-1.7318266 1.5454789-3.6972164 1.559-5.701-.0546505-3.243161-1.408486-6.3287388-3.758-8.565.367-.208.726-.423 1.073-.646 2.9917851 2.4834473 5.2044207 5.7765352 6.373 9.485.431 1.512.629 3.565-.875 4.759z" fill="#000"/><path id="Shape" d="m30 32c2.209139 0 4-1.790861 4-4h1c0 2.209139 1.790861 4 4 4s4-1.790861 4-4c.5522847 0 1-.4477153 1-1s-.4477153-1-1-1h-36c-.55228475 0-1 .4477153-1 1s.44771525 1 1 1c0 2.209139 1.790861 4 4 4s4-1.790861 4-4h1c0 2.209139 1.790861 4 4 4s4-1.790861 4-4h2c0 2.209139 1.790861 4 4 4zm9-2c-1.1045695 0-2-.8954305-2-2h4c0 1.1045695-.8954305 2-2 2zm-28 0c-1.1045695 0-2-.8954305-2-2h4c0 1.1045695-.8954305 2-2 2zm9 0c-1.1045695 0-2-.8954305-2-2h4c0 1.1045695-.8954305 2-2 2zm10 0c-1.1045695 0-2-.8954305-2-2h4c0 1.1045695-.8954305 2-2 2z" fill="#000"/><path id="Shape" d="m18 22c1.6568542 0 3-1.3431458 3-3s-1.3431458-3-3-3-3 1.3431458-3 3 1.3431458 3 3 3zm0-4c.5522847 0 1 .4477153 1 1s-.4477153 1-1 1-1-.4477153-1-1 .4477153-1 1-1z" fill="#000"/><path id="Shape" d="m31 22c1.6568542 0 3-1.3431458 3-3s-1.3431458-3-3-3-3 1.3431458-3 3 1.3431458 3 3 3zm0-4c.5522847 0 1 .4477153 1 1s-.4477153 1-1 1-1-.4477153-1-1 .4477153-1 1-1z" fill="#000"/></g></g></svg>