<svg height="512" viewBox="0 0 54 60" width="512" xmlns="http://www.w3.org/2000/svg"><g id="Page-1" fill="none" fill-rule="evenodd"><g id="065---Happy-Girl" fill-rule="nonzero"><path id="Shape" d="m32 49.49v2.51c0 1.6568542-1.3431458 3-3 3h-4c-1.6548028-.0049422-2.9950578-1.3451972-3-3v-2.51c3.2986539.6799945 6.7013461.6799945 10 0z" fill="#ffe0b2"/><path id="Shape" d="m43 59h-32c0-3.8659932 3.1340068-7 7-7h4c.0049422 1.6548028 1.3451972 2.9950578 3 3h4c1.6568542 0 3-1.3431458 3-3h4c3.8659932 0 7 3.1340068 7 7z" fill="#ffdc00"/><path id="Shape" d="m40.95 54.05c-1.3102237-1.3166613-3.0925123-2.0547808-4.95-2.05l-3-.0000231c3.8659932.0000231 7 3.1340299 7 7.0000231h3.0000231c.0047577-1.8574877-.7333618-3.6397763-2.0500231-4.95z" fill="#fec108"/><path id="Shape" d="m44.11 42.48c-3.1371161 3.6276405-7.4018694 6.0963374-12.11 7.01-3.2986539.6799945-6.7013461.6799945-10 0-4.7081306-.9136626-8.9728839-3.3823595-12.11-7.01-.83428134-5.457882-1.14569357-10.9829376-.93-16.5.02398946-.6269797.33810643-1.2071722.85-1.57 2.2165275-1.4988731 4.6969161-2.5643204 7.31-3.14.87-6.73 6.68-10.15 6.87-10.26-.09.13-1.84 2.58-1.42 9.31 1.4711067-.1653645 2.9496995-.2554819 4.43-.27 0 0 11.09-.09 17.19 4.36.5118936.3628278.8260105.9430203.85 1.57.2156936 5.5170624-.0957187 11.042118-.93 16.5z" fill="#ffe0b2"/><path id="Shape" d="m45.04 25.98c-.0239895-.6269797-.3381064-1.2071722-.85-1.57-6.1-4.45-17.19-4.36-17.19-4.36s-.556 0-1.468.041c3.253.153 10.944.88 15.658 4.319.5118936.3628278.8260105.9430203.85 1.57.2156936 5.5170624-.0957187 11.042118-.93 16.5-3.1371161 3.6276405-7.4018694 6.0963374-12.11 7.01-1.1542962.2360538-2.3239092.3897744-3.5.46.5.03 1 .05 1.5.05 1.6796403-.0001741 3.3549146-.1710521 5-.51 4.7081306-.9136626 8.9728839-3.3823595 12.11-7.01.8342813-5.457882 1.1456936-10.9829376.93-16.5z" fill="#dfc49c"/><path id="Shape" d="m24 42h6v1c0 1.6568542-1.3431458 3-3 3s-3-1.3431458-3-3z" fill="#ef314c"/><path id="Shape" d="m18 42h-1c-.5522847 0-1-.4477153-1-1s.4477153-1 1-1h1c.5522847 0 1 .4477153 1 1s-.4477153 1-1 1z" fill="#e91e63"/><path id="Shape" d="m37 42h-1c-.5522847 0-1-.4477153-1-1s.4477153-1 1-1h1c.5522847 0 1 .4477153 1 1s-.4477153 1-1 1z" fill="#e91e63"/><path id="Shape" d="m47.61 8.6-.18.28-1.86 2.78-.18.26c-.1467316.2220203-.3759089.3763952-.6367947.4289477s-.5319584-.0010525-.7532053-.1489477l-3.32-2.23c-.45754-.30893857-.5822452-.92801117-.28-1.39l.17-.26h.01l1.87-2.79.18-.27c.1483028-.22039968.3782067-.37273321.6389823-.42338746s.5309895.0045341.7510177.15338746l3.32 2.22c.2203997.14830282.3727332.37820673.4233875.63898229.0506542.26077557-.0045341.53098947-.1533875.75101771z" fill="#e91e63"/><path id="Shape" d="m42.45 5.53-1.87 2.79h-.01c-1.310803.46713411-2.7438745.46005721-4.05-.02-.5411289-.14951986-.9945-.51958975-1.2493651-1.01981016-.2548652-.50022041-.2877549-1.08452795-.0906349-1.61018984.3614279-.78174616.9643666-1.42675027 1.72-1.84.0141677-.25910714.064661-.51493982.15-.76.1978802-.56139877.4998192-1.08046238.89-1.53.4116051-.38483529.9664532-.5781831 1.528084-.5324911s1.0779293.32618394 1.421916.7724911c.9474193 1.02598351 1.5001942 2.35476928 1.56 3.75z" fill="#e91e63"/><path id="Shape" d="m53 27.11c.0119186 8.2277132-3.8712606 15.9755271-10.47 20.89.7453411-1.7702569 1.2757918-3.6234768 1.58-5.52.8342813-5.457882 1.1456936-10.9829376.93-16.5-.0239895-.6269797-.3381064-1.2071722-.85-1.57-6.1-4.45-17.19-4.36-17.19-4.36-1.4803005.0145181-2.9588933.1046355-4.43.27-.42-6.73 1.33-9.18 1.42-9.31-.19.11-6 3.53-6.87 10.26-2.6130839.5756796-5.0934725 1.6411269-7.31 3.14-.51189357.3628278-.82601054.9430203-.85 1.57-.21569357 5.5170624.09571866 11.042118.93 16.5.3042082 1.8965232.8346589 3.7497431 1.58 5.52-10.57265499-7.8475206-13.62415151-22.3521842-7.10969883-33.7944969 6.51445263-11.44231271 20.54493483-16.22169222 32.68969883-11.1355031-.085339.24506018-.1358323.50089286-.15.76-.7556334.41324973-1.3585721 1.05825384-1.72 1.84-.19712.52566189-.1642303 1.10996943.0906349 1.61018984.2548651.50022041.7082362.8702903 1.2493651 1.01981016 1.3061255.48005721 2.739197.48713411 4.05.02l-.17.26c-.3022452.46198883-.17754 1.08106143.28 1.39l3.32 2.23c.2212469.1478952.4923195.2015002.7532053.1489477s.4900631-.2069274.6367947-.4289477l.18-.26c.0608525 1.392033.6136462 2.7173205 1.56 3.74.3426573.4449698.8571517.7247136 1.4169055.7704078.5597537.0456942 1.1128066-.1469029 1.5230945-.5304078.0621369-.0689386.1189659-.142482.17-.22 1.8229797 3.6266811 2.7683812 7.630936 2.76 11.69z" fill="#a0522d"/><path id="Shape" d="m34.05 3.07c-.085339.24506018-.1358323.50089286-.15.76-.7556334.41324973-1.3585721 1.05825384-1.72 1.84-.19712.52566189-.1642303 1.10996943.0906349 1.61018984.2548651.50022041.7082362.8702903 1.2493651 1.01981016 1.1607642.40962967 2.4167082.46703431 3.61.165-.2-.047-.4-.094-.61-.165-.5411289-.14951986-.9945-.51958975-1.2493651-1.01981016-.2548652-.50022041-.2877549-1.08452795-.0906349-1.61018984.3614279-.78174616.9643666-1.42675027 1.72-1.84.0141677-.25910714.064661-.51493982.15-.76-3.1817398-1.33690452-6.598802-2.02371702-10.05-2.02-.5 0-1 .018-1.5.046 2.9416733.16591365 5.8333293.83353109 8.55 1.974z" fill="#783e22"/><path id="Shape" d="m37.4 8.58c-.3022452.46198883-.17754 1.08106143.28 1.39l3.32 2.23c.2212469.1478952.4923195.2015002.7532053.1489477s.4900631-.2069274.6367947-.4289477l.18-.26c.0608525 1.392033.6136462 2.7173205 1.56 3.74.3426573.4449698.8571517.7247136 1.4169055.7704078.5597537.0456942 1.1128066-.1469029 1.5230945-.5304078.047-.055.09-.112.132-.171-.023-.025-.05-.043-.072-.069-.9463538-1.0226795-1.4991475-2.347967-1.56-3.74l-.18.26c-.1467316.2220203-.3759089.3763952-.6367947.4289477s-.5319584-.0010525-.7532053-.1489477l-3.32-2.23c-.45754-.30893857-.5822452-.92801117-.28-1.39l.17-.26c-1.0060754.36349289-2.0939103.43763196-3.14.214z" fill="#783e22"/><path id="Shape" d="m50.24 15.42c-.0510341.077518-.1078631.1510614-.17.22-.374952.3568447-.8763408.5500631-1.3937957.537122-.517455-.012941-1.0085586-.2309807-1.3652043-.606122 4.5972068 9.3229795 3.2222421 20.4853356-3.5 28.414-.2922304 1.3776527-.7213613 2.7226648-1.281 4.015 10.1160903-7.5629216 13.3634537-21.2852434 7.71-32.58z" fill="#783e22"/><path id="Shape" d="m52.84 11.52c-.3620027.7788348-.9650717 1.4204722-1.72 1.83-.0730891.7641777-.3804303 1.487128-.88 2.07-.0510341.077518-.1078631.1510614-.17.22-.4102879.3835049-.9633408.576102-1.5230945.5304078-.5597538-.0456942-1.0742482-.325438-1.4169055-.7704078-.9463538-1.0226795-1.4991475-2.347967-1.56-3.74l1.86-2.78.01-.01c1.3088885-.47824108 2.7458986-.47114474 4.05.02.5429605.14728144.9987826.51643091 1.2556911 1.01692662.2569084.50049568.2911431 1.08604948.0943089 1.61307338z" fill="#e91e63"/><g fill="#000"><path id="Shape" d="m26 39h2c.5522847 0 1-.4477153 1-1s-.4477153-1-1-1h-2c-.5522847 0-1 .4477153-1 1s.4477153 1 1 1z"/><path id="Shape" d="m30 41h-6c-.5522847 0-1 .4477153-1 1v1c0 2.209139 1.790861 4 4 4s4-1.790861 4-4v-1c0-.5522847-.4477153-1-1-1zm-3 4c-1.1045695 0-2-.8954305-2-2h4c0 1.1045695-.8954305 2-2 2z"/><path id="Shape" d="m16 29h3c.5522847 0 1-.4477153 1-1s-.4477153-1-1-1h-3c-.5522847 0-1 .4477153-1 1s.4477153 1 1 1z"/><path id="Shape" d="m10.873 48.8c.3651652.2710634.8672452.2615937 1.2219293-.0230468.3546841-.2846404.4726389-.77276.2870707-1.1879532-.2723335-.6264652-.5061031-1.2689976-.7-1.924 2.7168651 2.2219743 5.903058 3.7976318 9.318 4.608v.727h-3c-4.4162219.0049599-7.9950401 3.5837781-8 8 0 .5522847.4477153 1 1 1h32c.5522847 0 1-.4477153 1-1 0-4.418278-3.581722-8-8-8h-3v-.727c3.4146201-.809644 6.6007564-2.3842477 9.318-4.605-.1945051.6544754-.4282619 1.2966386-.7 1.923-.1838406.4149606-.0651717.9016918.2890278 1.1854739.3541996.2837822.8550951.2934415 1.2199722.0235261 10.3276729-7.7108271 13.7851228-21.6347609 8.264-33.281.3072315-.4729863.5279947-.996791.652-1.547.7197466-.5148152 1.298211-1.2026445 1.682-2 .3402998-.6860907.364762-1.4864065.067-2.192-.364857-.86904612-1.0857291-1.53928595-1.979-1.84-.9937001-.34012569-2.0481805-.46588629-3.094-.369-.1142598-.48500433-.4065737-.90937695-.819-1.189l-3.328-2.227c-.4145693-.27629391-.9178767-.3865932-1.41-.309-.3094929-1.00327991-.8274715-1.92984811-1.52-2.719-.6151607-.7078892-1.5042088-1.11819109-2.442-1.127h-.021c-.7660558-.00621295-1.4966006.3225322-2 .9-.2368569.28141052-.4492927.58250064-.635.9-3.0481235-1.16000715-6.2826101-1.75308674-9.544-1.75-11.647248.02917434-21.9696285 7.50665547-25.62770376 18.5645813-3.65807526 11.0579257.16863821 23.2160723 9.50070376 30.1854187zm29.366 5.955c.8843411.8795951 1.4702215 2.0146291 1.675 3.245h-29.834c.4916447-2.8863728 2.9920555-4.9982062 5.92-5h3.146c.4542148 1.7592509 2.0370794 2.9913718 3.854 3h4c1.8224231.0067596 3.4139076-1.2317497 3.855-3h3.145c1.5908416-.0034395 3.1170588.6291539 4.239 1.757zm-9.239-2.774v.019.013c-.0071468 1.0994893-.9004875 1.9870232-2 1.987h-4c-1.1045695 0-2-.8954305-2-2v-1.318c2.6498124.4240039 5.3501876.4240039 8 0zm-4-2.981c-6.1422215.1067066-12.0338302-2.4325789-16.174-6.971-.777411-5.3013318-1.06762324-10.6627272-.867-16.017.01523745-.3186824.1778591-.6121406.44-.794 2.1092311-1.4274217 4.472013-2.4382483 6.961-2.978.4005795-.0989447.6992578-.4337662.752-.843.4040121-2.8258654 1.7316745-5.438646 3.776-7.431-.3785692 2.1167702-.4847646 4.2732768-.316 6.417.017259.2722858.1450212.5256976.3536696.7014909.2086484.1757934.4800645.2587029.7513304.2295091 2.494-.269 4.3-.259 4.331-.264.1 0 10.834-.033 16.6 4.17.2611118.1820743.4229225.4750329.438.793.2015901 5.3542808-.0886269 10.7157646-.867 16.017-4.1418183 4.5389397-10.0353046 7.0778852-16.179 6.97zm24.176-39.163c.341913.11448092.6189827.3690069.762.7.0759753.1649276.07996.3540183.011.522-.2667159.5829443-.7071672 1.0691523-1.261 1.392-.331879.1574467-.5507209.4841739-.57.851-.0635209.5363634-.2805441 1.0429823-.625 1.459-.011.013-.02.027-.031.041-.051.067-.1.138-.152.2-.1281507.1334743-.3095867.2021555-.494.187-.3577583-.0089005-.6952767-.1678608-.93-.438-.7094902-.7819587-1.1630782-1.7620577-1.3-2.809l1.5-2.239c1.0195702-.27143482 2.0977551-.22467859 3.09.134zm-7.716-4.02 3.323 2.227-2.225 3.323-3.324-2.226zm-4.26-3.817c.3574947.00880912.6947391.16781133.929.438.7096296.78147313 1.1632545 1.76130275 1.3 2.808l-1.5 2.24c-1.0214585.26887789-2.1005352.22074842-3.094-.138-.3412895-.11474332-.6176397-.36927638-.76-.7-.0776279-.16370667-.0823507-.35261887-.013-.52.2686637-.58439859.7115905-1.07133867 1.268-1.394.3311865-.15755479.5495538-.48376255.569-.85.0874873-.63665931.3701161-1.23056411.809-1.7.1302565-.12868878.3092647-.19563493.492-.184zm-12.2.05c2.9130631-.00622401 5.8043796.501559 8.541 1.5-.5137773.46987032-.9368066 1.03018071-1.248 1.653-.34142.68510142-.3659013 1.48530884-.067 2.19.3605181.87263388 1.0800067 1.54729105 1.974 1.851.7873827.26808426 1.6132331.40589489 2.445.408.233 0 .447-.014.651-.033.1163517.4832796.4091902.9055947.821 1.184l3.323 2.226c.3277612.2207033.7138579.3387256 1.109.339.1005956-.0027051.2008607-.0127316.3-.03.3094306 1.0039055.8274004 1.9311396 1.52 2.721.6150409.7067879 1.5031241 1.1166165 2.44 1.126h.021c.3524648-.0041418.7009498-.0750603 1.027-.209 4.1899753 9.4888813 2.1072925 20.5779747-5.24 27.9 1.593-6.38 1.54-15.029 1.415-18.923-.0312093-.9354185-.4971984-1.8026759-1.26-2.345-6.3-4.594-17.324-4.551-17.774-4.553-.065 0-1.441 0-3.485.173-.159-5.166 1.07-7.3 1.267-7.607.1404357-.173249.2179898-.3889902.22-.612.0017512-.3656518-.1962101-.7031048-.5162335-.8799927-.3200234-.17688799-.7110758-.16500312-1.0197665.0309927-.493.292-6.045 3.715-7.23 10.306-2.5080919.60976-4.8839587 1.6718005-7.011 3.134-.76380855.5431601-1.23079018 1.4113096-1.263 2.348-.123 3.894-.175 12.545 1.416 18.923-7.17996241-7.1523117-9.34615668-17.9246628-5.48899045-27.2964124 3.85716624-9.37174965 12.97855715-15.49842687 23.11299045-15.5245876z"/><path id="Shape" d="m17.5 31c-1.6371375.0236646-3.0555517 1.1409423-3.462 2.727-.0996635.3443718-.0073556.7157459.2419413.9733809s.6174344.3621065.9648976.2738223c.3474632-.0882841.6210817-.3558143.7171611-.7012032.1414179-.7377699.7867986-1.2711916 1.538-1.2711916s1.3965821.5334217 1.538 1.2711916c.0960794.3453889.3696979.6129191.7171611.7012032.3474632.0882842.7156007-.0161873.9648976-.2738223s.3416048-.6290091.2419413-.9733809c-.4064483-1.5860577-1.8248625-2.7033354-3.462-2.727z"/><path id="Shape" d="m35 29h3c.5522847 0 1-.4477153 1-1s-.4477153-1-1-1h-3c-.5522847 0-1 .4477153-1 1s.4477153 1 1 1z"/><path id="Shape" d="m36.5 31c-1.6371375.0236646-3.0555517 1.1409423-3.462 2.727-.0996635.3443718-.0073556.7157459.2419413.9733809s.6174344.3621065.9648976.2738223c.3474632-.0882841.6210817-.3558143.7171611-.7012032.1414179-.7377699.7867986-1.2711916 1.538-1.2711916s1.3965821.5334217 1.538 1.2711916c.0960794.3453889.3696979.6129191.7171611.7012032.3474632.0882842.7156007-.0161873.9648976-.2738223s.3416048-.6290091.2419413-.9733809c-.4064483-1.5860577-1.8248625-2.7033354-3.462-2.727z"/></g></g></g></svg>