<svg height="512" viewBox="0 0 256 256" width="512" xmlns="http://www.w3.org/2000/svg"><path d="m92.3 147.98h26.194l-27.656 32.849-19.938-23.684a29.448 29.448 0 0 1 21.4-9.165z" fill="#fc5d3d"/><path d="m185.1 157.145-19.936 23.684-27.657-32.849h26.193a29.448 29.448 0 0 1 21.4 9.165z" fill="#fc5d3d"/><path d="m190.58 232.456 10.92-89.089a2 2 0 0 0 -3.515-1.531l-12.885 15.31-19.94 23.681c-35.623-42.327-35.63-42.327-35.63-42.327a2 2 0 0 0 -3.06 0l-7.98 9.474-27.65 32.853-19.94-23.681-12.886-15.31a2 2 0 0 0 -3.515 1.531l10.921 89.089a9.266 9.266 0 0 0 -9.13 9.294 9.422 9.422 0 0 0 9.55 9.237h124.6a9.266 9.266 0 0 0 .14-18.531z" fill="#f0c020"/><path d="m128 177.268c-7.724 0-13.986 8.461-13.986 18.9s6.262 18.9 13.986 18.9 13.986-8.462 13.986-18.9-6.262-18.9-13.986-18.9z" fill="#13bf6d"/><path d="m126.843 207.006a2.5 2.5 0 0 1 .9-3.419 1.751 1.751 0 0 0 .234-.171 2.5 2.5 0 0 1 3.524.288c.81.955 1.072 2.673-.939 4.015-.095.064-.2.126-.3.188a2.5 2.5 0 0 1 -3.419-.901zm5.712-6.323a2.5 2.5 0 0 1 -2.172-2.789 14.254 14.254 0 0 0 .1-1.726 10.528 10.528 0 0 0 -2.051-6.781 2.5 2.5 0 1 1 3.832-3.211 15.727 15.727 0 0 1 3.219 9.992 19.159 19.159 0 0 1 -.142 2.343 2.5 2.5 0 0 1 -2.786 2.172z" fill="#76ffba"/><path d="m128 5.013c-34.851 0-63.1 22.4-63.1 50.027 0 25.372 23.8 46.186 54.386 49.535 4.636 10.514 2.7 6.125 8.717 19.772 6.022-13.661 4.079-9.253 8.717-19.772 30.58-3.348 54.38-24.161 54.38-49.535 0-27.627-28.249-50.027-63.1-50.027z" fill="#13bf6d"/><path d="m126 97.527-4.971-.544a2.5 2.5 0 0 1 .544-4.97l4.971.544a2.5 2.5 0 0 1 -.544 4.97zm-15.152-2.3c-20.748-5.187-38.215-20.619-38.215-40.187 0-23.319 24.838-42.291 55.367-42.291a2.5 2.5 0 1 1 0 5c-27.772 0-50.367 16.729-50.367 37.291 0 17.3 16.105 30.752 34.424 35.341a2.5 2.5 0 1 1 -1.214 4.849z" fill="#76ffba"/><path d="m86.545 55.243c0-17.47 20.674-26.063 33.161-14.4l23.22 21.7a9.977 9.977 0 0 0 16.818-7.3 9.732 9.732 0 0 0 -14.462-8.716c-3.054 1.548-5.844-.4-6.758-2.927a4.388 4.388 0 0 1 2.177-5.649 19.474 19.474 0 0 1 28.754 17.292c0 17.467-20.676 26.064-33.16 14.4l-23.951-22.328a10 10 0 1 0 -2.11 17.123 4.83 4.83 0 0 1 5.882 1.531 4.7 4.7 0 0 1 -1.525 7.187c-12.314 5.865-28.046-2.997-28.046-17.913z" fill="#fff"/><path d="m117.57 106.89 8.14 18.46a2.507 2.507 0 0 0 4.58 0l8.14-18.46a75.514 75.514 0 0 0 25.34-7.821 2.5 2.5 0 1 0 -2.31-4.429 70.736 70.736 0 0 1 -25.021 7.45 2.5 2.5 0 0 0 -2.009 1.479l-6.43 14.58-6.43-14.58a2.5 2.5 0 0 0 -2.01-1.479c-30.468-3.339-52.188-24.045-52.16-47.05 0-26.472 27.5-47.53 60.59-47.53h.02c33.1 0 60.59 21.07 60.59 47.53 0 10.23-4.1 19.98-11.85 28.2a2.5 2.5 0 0 0 .109 3.53 2.562 2.562 0 0 0 3.521-.09.01.01 0 0 1 .01-.01c8.147-8.613 13.21-19.566 13.21-31.63 0-29.765-30.247-52.51-65.6-52.53-36.153.02-65.6 23.359-65.6 52.53 0 26.615 24.415 47.909 55.17 51.85z"/><path d="m172.58 93.58a2.505 2.505 0 0 0 .52-3.5 2.571 2.571 0 0 0 -3.5-.52 2.5 2.5 0 1 0 2.98 4.02z"/><path d="m110.81 49.279c1.334 1.179-5.486-5.193 23.78 22.181 14.107 13.255 37.421 3.314 37.36-16.22a21.963 21.963 0 0 0 -32.4-19.5 7.1 7.1 0 0 0 -3.369 8.8 7.394 7.394 0 0 0 10.229 4.22 7.235 7.235 0 0 1 10.83 6.48 7.474 7.474 0 0 1 -12.61 5.48l-23.22-21.7a22.5 22.5 0 0 0 -5.4-3.76 2.539 2.539 0 0 0 -3.35 1.13 2.494 2.494 0 0 0 1.12 3.339l.01.011a17.3 17.3 0 0 1 4.21 2.93l23.22 21.7a12.482 12.482 0 0 0 21.02-9.13 12.222 12.222 0 0 0 -18.091-10.94 2.4 2.4 0 0 1 -3.27-1.481 2.11 2.11 0 0 1 .971-2.649 16.99 16.99 0 0 1 25.11 15.07 17.2 17.2 0 0 1 -28.96 12.57l-23.91-22.371c-6.471-6.123-20.34-1.829-20.34 9.8a12.531 12.531 0 0 0 17.5 11.48 2.34 2.34 0 0 1 3.01.967 2.124 2.124 0 0 1 -.75 3.212c-10.578 5.054-24.444-2.5-24.47-15.659a16.7 16.7 0 0 1 8.04-14.61 2.5 2.5 0 1 0 -2.62-4.26 21.846 21.846 0 0 0 -10.41 18.871c-.027 16.782 17.71 26.811 31.62 20.17a7.19 7.19 0 0 0 2.492-10.881 7.32 7.32 0 0 0 -8.942-2.369 7.511 7.511 0 1 1 1.59-12.881z"/><path d="m107.71 35.38a2.5 2.5 0 1 0 -2.5 2.649 2.512 2.512 0 0 0 2.5-2.649z"/><path d="m196.072 140.227-11.172 13.273a31.909 31.909 0 0 0 -21.2-8.017h-25.029l-7.23-8.587a4.5 4.5 0 0 0 -6.883 0l-7.23 8.587h-25.038a31.928 31.928 0 0 0 -21.19 8.011l-11.17-13.268a4.5 4.5 0 0 0 -7.909 3.445l10.624 86.667a11.759 11.759 0 0 0 2.735 23.152h.03a2.514 2.514 0 0 0 2.5-2.47 2.486 2.486 0 0 0 -2.46-2.53 6.768 6.768 0 0 1 -.01-13.534c.118 0 125.278 0 125.16 0a6.769 6.769 0 0 1 -.161 13.536h-105.029a2.5 2.5 0 1 0 0 5h105.029a11.76 11.76 0 0 0 2.92-23.154l10.623-86.665a4.5 4.5 0 0 0 -7.91-3.446zm-32.372 10.252a26.993 26.993 0 0 1 17.98 6.84c-6.931 8.236-3.4 4.038-16.52 19.625l-22.28-26.465zm-89.38 6.84a26.991 26.991 0 0 1 17.98-6.84h20.819l-22.28 26.465c-13.048-15.499-9.439-11.207-16.519-19.625zm114.048 72.637h-120.736l-10.447-85.223 31.745 37.706a2.494 2.494 0 0 0 3.82 0l35.25-41.873 35.247 41.871a2.494 2.494 0 0 0 3.82 0l31.742-37.705z"/><path d="m75.42 248.49a2.5 2.5 0 1 0 2.49 2.5 2.5 2.5 0 0 0 -2.49-2.5z"/><path d="m128 174.77c-9.568 0-16.469 10.062-16.49 21.4.02 10.858 6.586 21.4 16.49 21.4 9.725 0 16.469-10.277 16.49-21.4-.021-10.833-6.569-21.4-16.49-21.4zm0 37.8c-6.3 0-11.49-7.472-11.49-16.4s5.177-16.4 11.49-16.4c6.208 0 11.49 7.316 11.49 16.4 0 9.066-5.283 16.399-11.49 16.399z"/><path d="m181.731 224.956h-9.013a2.5 2.5 0 0 1 0-5h6.8l6.3-51.389a2.5 2.5 0 0 1 4.963.608l-6.568 53.585a2.5 2.5 0 0 1 -2.482 2.196zm-19.013 0h-2.718a2.5 2.5 0 0 1 0-5h2.718a2.5 2.5 0 0 1 0 5z" fill="#f9e5af"/></svg>