<?xml version="1.0" encoding="iso-8859-1"?>
<!-- Generator: Adobe Illustrator 19.0.0, SVG Export Plug-In . SVG Version: 6.00 Build 0)  -->
<svg version="1.1" id="Capa_1" xmlns="http://www.w3.org/2000/svg" xmlns:xlink="http://www.w3.org/1999/xlink" x="0px" y="0px"
	 viewBox="0 0 512 512" style="enable-background:new 0 0 512 512;" xml:space="preserve">
<path style="fill:#7ACF90;" d="M59.978,48.73C47.252,52.713,41.22,67.277,47.402,79.092c13.939,26.64,43.761,70.777,96.093,92.453
	c39.931,16.54,90.389,5.905,104.143-27.299s-14.406-76.403-54.337-92.943C140.968,29.627,88.671,39.749,59.978,48.73z"/>
<path style="fill:#5FB87D;" d="M196.332,130.499c-0.957,0-1.929-0.184-2.867-0.573l-78.002-32.309
	c-3.827-1.585-5.645-5.973-4.059-9.799c1.586-3.827,5.976-5.643,9.799-4.059l78.002,32.309c3.827,1.585,5.645,5.973,4.059,9.799
	C202.067,128.755,199.275,130.499,196.332,130.499z"/>
<path style="fill:#B38A82;" d="M256,189.455c-12.336,0-22.336-10-22.336-22.336c0-50.125-12.406-101.056-32.377-132.917
	c-6.551-10.453-3.39-24.237,7.063-30.789c10.455-6.55,24.237-3.389,30.789,7.063c24.544,39.158,39.198,97.717,39.198,156.643
	C278.336,179.455,268.336,189.455,256,189.455z"/>
<path style="opacity:0.1;enable-background:new    ;" d="M241.344,120.131c-4.012-2.787-8.184-5.359-12.49-7.716
	c3.123,17.683,4.81,36.247,4.81,54.704c0,12.336,10,22.336,22.336,22.336c12.336,0,22.336-10,22.336-22.336
	c0-16.78-1.192-33.527-3.458-49.808c-1.425,0.915-2.833,1.854-4.222,2.819C261.875,126.231,250.125,126.231,241.344,120.131z"/>
<path style="fill:#F49E73;" d="M24.584,255.248c0,97.029,69.815,202.563,187.632,248.516c28.155,10.982,59.413,10.982,87.569,0
	c117.817-45.953,187.632-151.486,187.632-248.516l0,0c0-76.26-61.821-138.08-138.08-138.08c-29.241,0-56.357,9.092-78.68,24.601
	c-8.781,6.101-20.531,6.101-29.312,0c-22.323-15.509-49.438-24.601-78.68-24.601C86.405,117.168,24.584,178.989,24.584,255.248
	L24.584,255.248z"/>
<path style="fill:#EA8962;" d="M246.222,144.411c-12.988,17.86-20.046,38.739-20.387,54.99c-0.087,4.141,3.199,7.569,7.341,7.656
	c0.054,0.001,0.106,0.002,0.16,0.002c4.068,0,7.409-3.255,7.495-7.343c0.349-16.593,9.378-38.773,24.738-55.213
	C259.371,146.981,252.403,146.946,246.222,144.411z"/>
<path style="fill:#8ADBA1;" d="M448.308,21.832c12.726,3.983,18.758,18.547,12.576,30.362
	c-13.939,26.64-43.761,70.777-96.093,92.454c-39.931,16.54-90.389,5.905-104.143-27.299s14.406-76.403,54.337-92.943
	C367.318,2.729,419.614,12.851,448.308,21.832z"/>
<path style="fill:#5FB87D;" d="M311.953,103.601c-2.943,0-5.735-1.744-6.932-4.632c-1.586-3.827,0.231-8.214,4.059-9.799
	l78.002-32.309c3.827-1.586,8.214,0.233,9.799,4.059c1.586,3.827-0.232,8.214-4.059,9.799l-78.002,32.309
	C313.882,103.417,312.909,103.601,311.953,103.601z"/>
<g>
	<path style="fill:#464D59;" d="M185.053,288.026c-4.143,0-7.5-3.358-7.5-7.5v-11.975c0-4.142,3.357-7.5,7.5-7.5s7.5,3.358,7.5,7.5
		v11.975C192.553,284.669,189.195,288.026,185.053,288.026z"/>
	<path style="fill:#464D59;" d="M256,309.902L256,309.902c-11.163,0-20.213-9.05-20.213-20.213v-14.695
		c0-3.047,2.47-5.518,5.518-5.518h29.39c3.047,0,5.518,2.47,5.518,5.518v14.695C276.213,300.852,267.163,309.902,256,309.902z"/>
	<path style="fill:#464D59;" d="M326.947,288.026c-4.143,0-7.5-3.358-7.5-7.5v-11.975c0-4.142,3.357-7.5,7.5-7.5
		c4.142,0,7.5,3.358,7.5,7.5v11.975C334.447,284.669,331.09,288.026,326.947,288.026z"/>
</g>
<path style="fill:#EF9067;" d="M299.784,503.764c15.325-5.977,29.83-12.971,43.483-20.815
	C157.159,445.412,111.052,187.48,184.054,118.817c-6.971-1.085-14.114-1.649-21.39-1.649c-76.259,0-138.08,61.821-138.08,138.08l0,0
	c0,97.029,69.815,202.563,187.632,248.516C240.371,514.745,271.629,514.745,299.784,503.764z"/>
<g>
</g>
<g>
</g>
<g>
</g>
<g>
</g>
<g>
</g>
<g>
</g>
<g>
</g>
<g>
</g>
<g>
</g>
<g>
</g>
<g>
</g>
<g>
</g>
<g>
</g>
<g>
</g>
<g>
</g>
</svg>
