<svg id="Capa_1" enable-background="new 0 0 512 512" height="512" viewBox="0 0 512 512" width="512" xmlns="http://www.w3.org/2000/svg"><g><path d="m425.71 307.95c-7.55 19.54-16.62 42.99-19.66 84.05h-62.11c-3.03-40.98-12.09-64.51-19.63-84.11-7.08-18.39-12.19-31.68-7.45-50.95 5.49-22.33 27.22-44.94 58.14-44.94s52.65 22.61 58.14 44.94c4.78 19.43-.34 32.68-7.43 51.01z"/><g><path d="m512 512h-272v-90h272z"/></g><g><path d="m381.21 90h-81.21v-81.21z"/><g><circle cx="105" cy="407" r="15"/><g><path d="m270 120v-120h-270v512h210v-120h103.86c-2.87-35.18-10.61-55.3-17.55-73.33-7.66-19.9-15.58-40.48-8.59-68.89 8.29-33.68 40.93-67.78 87.28-67.78 5.18 0 10.18.42 15 1.23v-63.23zm-210 62h120v30h-120zm45 270c-24.81 0-45-20.19-45-45s20.19-45 45-45 45 20.19 45 45-20.19 45-45 45zm135-180h-180v-30h180z"/></g></g></g></g></svg>