<svg height="512" viewBox="0 0 58 50" width="512" xmlns="http://www.w3.org/2000/svg"><g id="Page-1" fill="none" fill-rule="evenodd"><g id="010---Sleepy-Sloth" fill-rule="nonzero"><path id="Shape" d="m10.34 23.48 32.88-14.13c11.78 1.42 14.78 7.55 14.78 19.65 0 14-11 21-29 21s-21-5-25-10c-1.34597993-1.866658-2.29237256-3.990935-2.78-6.24z" fill="#e57e25"/><path id="Shape" d="m40.81 16.36c.41.57.8 1.12 1.19 1.64 2.72 3.62 3.79 2.32 4 4.28-.38 1.9-4.28 3.72-10 3.72-5.33 0-5.14-2.37-8.53-2.89-.4815329-.1113528-.9772575-.1484478-1.47-.11-.4823009-.0386825-.9676753-.004976-1.44.1-3.42.53-3.23 2.9-8.56 2.9h-.5c-.4778508-.3654175-.9789028-.6994521-1.5-1-2.4341084-1.3927613-5.19576754-2.1107927-8-2.08 0-2.92 1-.92 4-4.92.39-.52.78-1.07 1.19-1.64l.81-16.36c3 0 5 4 6 6 .5548271 1.04229842 1.2257577 2.01850242 2 2.91 1.9357186-.63387491 3.9633808-.94140368 6-.91 2.0366192-.03140368 4.0642814.27612509 6 .91.7742423-.89149758 1.4451729-1.86770158 2-2.91 1-2 3-6 6-6z" fill="#f29c1f"/><path id="Shape" d="m46 23c0 3-2 13-20 13-1.07 0-2.08 0-3-.1-2.36-3-3.65-7-7.47-9.91h.47c5.33 0 5.14-2.37 8.53-2.89-.3695881.1341398-.5919486.5117331-.53.9 0 1.1.9 3 2 3s2-1.9 2-3c.0567966-.3848247-.1645965-.7565979-.53-.89 3.39.52 3.2 2.89 8.53 2.89 5.72 0 9.62-1.82 10-3.72z" fill="#ecf0f1"/><path id="Shape" d="m13 31h-5v4c-2.32420875.0976819-4.64081774-.3260047-6.78-1.24-.76135347-3.1991117-1.17045355-6.4719124-1.22-9.76 1.91751751-.7224714 3.95091084-1.0884822 6-1.08 1.46548639-.0129787 2.92580765.1754499 4.34.56 1.5732196 2.2081962 2.4948591 4.8137335 2.66 7.52z" fill="#ecf0f1"/><path id="Shape" d="m28 24c0 1.1-.9 3-2 3s-2-1.9-2-3c-.0567966-.3848247.1645965-.7565979.53-.89.9553722-.1333075 1.9246278-.1333075 2.88 0 .3893453.1104253.6399042.4883869.59.89z" fill="#7f6e5d"/><path id="Shape" d="m19 22c-.8031236.0252479-1.5809429-.2827077-2.1491176-.8508824s-.8761303-1.345994-.8508824-2.1491176c0-.5522847.4477153-1 1-1s1 .4477153 1 1 .4477153 1 1 1 1-.4477153 1-1 .4477153-1 1-1 1 .4477153 1 1c.0252479.8031236-.2827077 1.5809429-.8508824 2.1491176s-1.345994.8761303-2.1491176.8508824z" fill="#5f5346"/><path id="Shape" d="m33 22c-.8031236.0252479-1.5809429-.2827077-2.1491176-.8508824s-.8761303-1.345994-.8508824-2.1491176c0-.5522847.4477153-1 1-1s1 .4477153 1 1 .4477153 1 1 1 1-.4477153 1-1 .4477153-1 1-1 1 .4477153 1 1c.0252479.8031236-.2827077 1.5809429-.8508824 2.1491176s-1.345994.8761303-2.1491176.8508824z" fill="#5f5346"/><g fill="#d25627"><path id="Shape" d="m42.33 36.55c-1.49 2.24-5.15 3.51-9 3.51-2.1028196.0134253-4.1892997-.3699442-6.15-1.13-1.608685-.633792-3.0298545-1.6661186-4.13-3 .93.06 1.92.1 3 .1.5806855.4429954 1.2201398.8031091 1.9 1.07 4.89 2 11.23.72 12.8-1.62.1793781-.3344065.5325821-.5384678.9118826-.5268341.3793006.0116337.7193347.2369575.8778815.5817287.1585468.3447711.1082846.749577-.1297641 1.0451054z"/><circle id="Oval" cx="18" cy="15" r="1"/><circle id="Oval" cx="34" cy="15" r="1"/></g><path id="Shape" d="m11.19 16.36c-1.1040777-1.6099433-1.85080133-3.4375409-2.19-5.36-.73-2.91 0-11 3-11 1.43 0 7.15 14.07-.81 16.36z" fill="#e57e25"/><path id="Shape" d="m43.22 9.35c-.0203657.55577268-.094037 1.108307-.22 1.65-.3391987 1.9224591-1.0859223 3.7500567-2.19 5.36-7.95-2.3-2.24-16.36-.81-16.36 2.54 0 3.45 5.8 3.22 9.35z" fill="#d25627"/></g></g></svg>