<svg id="Capa_1" enable-background="new 0 0 512 512" height="512" viewBox="0 0 512 512" width="512" xmlns="http://www.w3.org/2000/svg"><g id="XMLID_1581_"><path id="XMLID_1010_" d="m133.332 77.667h-90l24-33.834-24-33.833h90z" fill="#ffcd69"/><path id="XMLID_928_" d="m390.227 197.197h-245.761c-33.635 0-60.901 27.266-60.901 60.901 0 33.635 27.266 60.901 60.901 60.901h245.762c33.635 0 60.901-27.267 60.901-60.901 0-33.634-27.267-60.901-60.902-60.901z" fill="#c68a65"/><path id="XMLID_925_" d="m356.901 108.428h-179.109c-24.513 0-44.384 19.872-44.384 44.384 0 24.513 19.872 44.384 44.384 44.384h179.109c24.513 0 44.384-19.872 44.384-44.384 0-24.512-19.871-44.384-44.384-44.384z" fill="#fff"/><path id="XMLID_924_" d="m228.679 108.428h-8.324c-15.17 0-27.468-12.298-27.468-27.468 0-15.17 12.298-27.468 27.468-27.468h16.559c13.701 0 24.807-11.107 24.807-24.808 0-10.319-8.365-18.684-18.684-18.684h57.428c27.18 0 49.214 22.034 49.214 49.214 0 27.18-22.034 49.214-49.214 49.214h-33.498" fill="#fff"/><path id="XMLID_1510_" d="m468.666 288.276-51.612 185.705c-4.602 16.56-19.681 28.019-36.868 28.019h-112.713-112.712c-17.187 0-32.266-11.459-36.868-28.019l-51.612-185.705 28.724-28.724 28.724 28.724 28.724-28.724 28.724 28.724 28.724-28.724 28.724 28.724 28.724-28.724 28.724 28.724 28.724-28.724 28.724 28.724 28.724-28.724 28.724 28.724 28.724-28.724 28.724 28.724" fill="#ff7d97"/><g id="XMLID_857_"><path id="XMLID_943_" d="m474.303 280.025-13.671-13.671c.318-2.736.498-5.495.498-8.255 0-36.269-27.381-66.247-62.554-70.393 7.926-9.451 12.71-21.622 12.71-34.893 0-29.988-24.396-54.385-54.384-54.385h-12.12c9.26-10.453 14.899-24.184 14.899-39.214-.001-32.651-26.564-59.214-59.215-59.214h-57.428c-5.523 0-10 4.477-10 10s4.477 10 10 10c4.788 0 8.684 3.896 8.684 8.684 0 8.165-6.643 14.808-14.807 14.808h-16.559c-20.66 0-37.468 16.809-37.468 37.469 0 6.306 1.572 12.248 4.335 17.468h-9.43c-13.068 0-25.071 4.635-34.459 12.345v-100.774c0-5.523-4.477-10-10-10h-90c-3.74 0-7.168 2.087-8.884 5.409-1.717 3.323-1.436 7.326.728 10.377l19.896 28.047-19.898 28.048c-2.164 3.051-2.445 7.054-.728 10.377 1.717 3.322 5.144 5.409 8.884 5.409h80v102.748c-28.806 9.013-49.769 35.946-49.769 67.684 0 2.76.18 5.519.497 8.255l-14.851 14.851c-2.55 2.55-3.529 6.274-2.564 9.749l51.611 185.705c5.785 20.809 24.908 35.341 46.505 35.341h67.712c5.523 0 10-4.478 10-10s-4.477-10-10-10h-67.712c-12.648 0-23.847-8.511-27.233-20.696l-50.049-180.083 17.526-17.525 21.652 21.652c1.876 1.875 4.419 2.929 7.071 2.929s5.196-1.054 7.071-2.929l21.653-21.652 21.652 21.652c3.905 3.904 10.237 3.904 14.143 0l21.652-21.652 21.653 21.652c3.904 3.904 10.237 3.904 14.142 0l21.653-21.652 21.652 21.652c3.905 3.904 10.237 3.904 14.143 0l21.652-21.652 21.652 21.652c3.905 3.904 10.237 3.904 14.142 0l21.652-21.652 21.652 21.652c3.905 3.904 10.237 3.904 14.143 0l21.652-21.652 17.725 17.725-49.992 179.883c-3.387 12.185-14.586 20.696-27.234 20.696h-67.712c-5.523 0-10 4.478-10 10s4.477 10 10 10h67.712c21.597 0 40.72-14.532 46.503-35.341l51.611-185.705c1.177-4.234-.56-8.581-3.997-10.929zm-271.416-199.065c0-9.632 7.836-17.469 17.468-17.469h16.559c19.193 0 34.807-15.614 34.807-34.808 0-3.025-.471-5.943-1.343-8.684h30.088c21.622 0 39.214 17.591 39.214 39.214s-17.591 39.214-39.214 39.214h-80.111c-9.632.001-17.468-7.835-17.468-17.467zm-25.095 37.468h179.109c18.96 0 34.384 15.425 34.384 34.385s-15.425 34.385-34.384 34.385h-179.109c-18.959 0-34.384-15.425-34.384-34.385s15.425-34.385 34.384-34.385zm-102.303-80.381-12.802-18.047h60.646v47.667h-60.646l12.802-18.048c2.458-3.466 2.458-8.106 0-11.572zm357.128 214.434-21.652 21.652-21.653-21.652c-3.904-3.904-10.237-3.904-14.142 0l-21.653 21.652-21.652-21.652c-3.905-3.904-10.237-3.904-14.143 0l-21.652 21.652-21.652-21.652c-3.905-3.904-10.237-3.904-14.142 0l-21.652 21.652-21.652-21.652c-3.905-3.904-10.237-3.904-14.143 0l-21.652 21.652-21.652-21.652c-3.905-3.904-10.237-3.904-14.143 0l-21.652 21.652-21.652-21.652c-1.876-1.875-4.419-2.929-7.071-2.929-.24 0-.478.018-.716.035 4.063-24.028 25.01-42.391 50.176-42.391h245.762c25.166 0 46.112 18.362 50.176 42.39-2.794-.198-5.653.761-7.788 2.895z"/><path id="XMLID_969_" d="m267.469 492c-2.63 0-5.21 1.069-7.07 2.93-1.86 1.86-2.93 4.43-2.93 7.07 0 2.63 1.07 5.21 2.93 7.069 1.87 1.86 4.44 2.931 7.07 2.931s5.21-1.07 7.08-2.931c1.86-1.859 2.92-4.439 2.92-7.069s-1.06-5.21-2.92-7.07c-1.87-1.861-4.44-2.93-7.08-2.93z"/></g></g></svg>