<svg id="Capa_1" enable-background="new 0 0 511.998 511.998" height="512" viewBox="0 0 511.998 511.998" width="512" xmlns="http://www.w3.org/2000/svg"><g id="XMLID_769_"><g id="XMLID_1030_" fill="#d5ea79"><path id="XMLID_1032_" d="m297.902 388.074-16.412 28.426c-3.464 6-12.124 6-15.589 0l-16.411-28.426c-3.464-6 .866-13.5 7.794-13.5h32.823c6.929 0 11.259 7.5 7.795 13.5z"/><path id="XMLID_1031_" d="m297.902 453.926-16.412-28.426c-3.464-6-12.124-6-15.589 0l-16.411 28.426c-3.464 6 .866 13.5 7.794 13.5h32.823c6.929 0 11.259-7.5 7.795-13.5z"/></g><g id="XMLID_1027_" fill="#ff7d97"><path id="XMLID_1029_" d="m119.26 277.753 8.495 31.705c1.793 6.692-4.331 12.816-11.023 11.023l-31.705-8.495c-6.692-1.793-8.933-10.158-4.035-15.057l23.209-23.209c4.9-4.9 13.266-2.659 15.059 4.033z"/><path id="XMLID_1028_" d="m165.824 324.317-31.705-8.495c-6.692-1.793-12.816 4.331-11.023 11.023l8.495 31.705c1.793 6.692 10.158 8.934 15.057 4.035l23.209-23.21c4.9-4.899 2.659-13.265-4.033-15.058z"/></g><g id="XMLID_1020_"><path id="XMLID_1026_" d="m433.658 10-267.245 38.729 114.258 114.258z" fill="#d5ea79"/><path id="XMLID_1025_" d="m127.684 315.974 267.245-38.729-114.258-114.258z" fill="#c193dc"/><path id="XMLID_1022_" d="m433.658 10-152.987 152.987 114.258 114.258z" fill="#ff7d97"/><path id="XMLID_1021_" d="m166.413 48.729-38.729 267.245 152.987-152.987z" fill="#ffda8f"/></g><g id="XMLID_218_"><path id="XMLID_302_" d="m440.729 2.929c-2.231-2.231-5.382-3.277-8.505-2.825l-267.245 38.728c-4.384.635-7.827 4.079-8.462 8.462l-31.88 219.987c-2.395-2.638-5.53-4.581-9.152-5.551-6.638-1.779-13.496.06-18.353 4.917l-23.209 23.209c-4.857 4.857-6.695 11.718-4.918 18.353 1.778 6.635 6.8 11.658 13.435 13.435l20.057 5.374-5.912 5.911c-16.742 16.742-21.514 40.731-12.453 62.606 9.061 21.876 29.398 35.465 53.075 35.465h113.973l-10.35 17.926c-3.434 5.948-3.434 13.051.001 18.999 3.435 5.949 9.586 9.5 16.455 9.5h32.823c6.869 0 13.02-3.552 16.455-9.5 3.434-5.949 3.434-13.051 0-19l-10.352-17.925h32.229c18.448 0 29.968 11.941 34.597 23.117s4.928 27.765-8.118 40.81c-3.905 3.905-3.905 10.237.001 14.142 1.953 1.953 4.512 2.929 7.071 2.929s5.119-.977 7.071-2.929c16.742-16.742 21.514-40.731 12.453-62.606s-29.398-35.463-53.075-35.463h-32.229l10.349-17.925c3.435-5.949 3.435-13.051 0-19s-9.586-9.501-16.455-9.501h-32.823c-6.869 0-13.02 3.551-16.455 9.5-3.434 5.948-3.435 13.051 0 19l10.351 17.926h-113.972c-18.448 0-29.968-11.941-34.597-23.117-4.629-11.175-4.927-27.765 8.118-40.81l5.865-5.865 5.34 19.929c1.777 6.635 6.8 11.657 13.435 13.436 1.666.446 3.345.665 5.004.665 4.949 0 9.711-1.944 13.349-5.582l23.209-23.21c4.857-4.857 6.695-11.718 4.917-18.353-.96-3.582-2.871-6.687-5.465-9.072l219.982-31.88c4.384-.635 7.827-4.079 8.462-8.462l38.729-267.245c.452-3.122-.595-6.274-2.826-8.505zm-181.712 454.497 14.679-25.426 14.68 25.426zm29.358-72.852-14.679 25.426-14.679-25.426zm-178.326-102.56 7.599 28.359-28.359-7.599zm30.754 72.274-7.599-28.358 28.359 7.599zm247.091-98.221-68.329-68.329c-3.905-3.905-10.237-3.905-14.143 0-3.905 3.905-3.905 10.237 0 14.143l68.329 68.329-217.711 31.55 99.882-99.882c3.905-3.905 3.905-10.237 0-14.143-3.905-3.905-10.237-3.905-14.143 0l-99.882 99.882 31.551-217.711 68.348 68.348c1.953 1.952 4.512 2.929 7.071 2.929s5.119-.977 7.071-2.929c3.905-3.905 3.905-10.237 0-14.143l-68.348-68.348 217.71-31.551-99.882 99.882c-3.905 3.905-3.905 10.237 0 14.143 1.953 1.953 4.512 2.929 7.071 2.929s5.119-.976 7.071-2.929l99.882-99.882z"/><path id="XMLID_310_" d="m280.668 152.99c-2.63 0-5.21 1.06-7.07 2.93-1.86 1.86-2.93 4.43-2.93 7.07 0 2.63 1.07 5.21 2.93 7.07s4.44 2.93 7.07 2.93 5.21-1.07 7.07-2.93c1.87-1.86 2.93-4.44 2.93-7.07s-1.06-5.21-2.93-7.07c-1.86-1.87-4.44-2.93-7.07-2.93z"/></g></g></svg>